<svg width="158" height="48" viewBox="0 0 158 48" fill="none" xmlns="http://www.w3.org/2000/svg">
<path d="M63.9304 16.4546V31.0001H61.2741L54.946 21.8453H54.8395V31.0001H51.7642V16.4546H54.4631L60.7415 25.6024H60.8693V16.4546H63.9304ZM70.786 31.2132C69.6638 31.2132 68.6979 30.9859 67.8883 30.5313C67.0834 30.0721 66.4631 29.4234 66.0275 28.5853C65.5919 27.7425 65.3741 26.7458 65.3741 25.5953C65.3741 24.4731 65.5919 23.4883 66.0275 22.6407C66.4631 21.7932 67.0763 21.1327 67.867 20.6592C68.6624 20.1857 69.5952 19.949 70.6653 19.949C71.385 19.949 72.0549 20.065 72.6752 20.297C73.3002 20.5242 73.8447 20.8675 74.3087 21.3268C74.7775 21.7861 75.1421 22.3637 75.4025 23.0598C75.6629 23.751 75.7931 24.5607 75.7931 25.4887V26.3197H66.5815V24.4447H72.9451C72.9451 24.0091 72.8504 23.6232 72.661 23.287C72.4716 22.9509 72.2088 22.6881 71.8727 22.4987C71.5412 22.3046 71.1553 22.2075 70.715 22.2075C70.2557 22.2075 69.8485 22.314 69.4934 22.5271C69.143 22.7354 68.8684 23.0171 68.6695 23.3723C68.4707 23.7226 68.3689 24.1133 68.3641 24.5441V26.3268C68.3641 26.8666 68.4636 27.333 68.6624 27.726C68.866 28.1189 69.1525 28.422 69.5218 28.635C69.8911 28.8481 70.3291 28.9546 70.8357 28.9546C71.1719 28.9546 71.4797 28.9073 71.759 28.8126C72.0384 28.7179 72.2775 28.5759 72.4763 28.3865C72.6752 28.1971 72.8267 27.9651 72.9309 27.6904L75.7292 27.8751C75.5871 28.5474 75.296 29.1346 74.8556 29.6365C74.42 30.1336 73.8566 30.5219 73.1653 30.8012C72.4787 31.0759 71.6856 31.2132 70.786 31.2132ZM79.5006 20.091L81.5035 23.9049L83.556 20.091H86.6597L83.4992 25.5456L86.745 31.0001H83.6555L81.5035 27.2288L79.387 31.0001H76.262L79.5006 25.5456L76.3756 20.091H79.5006ZM90.9088 31.2061C90.2128 31.2061 89.5925 31.0853 89.048 30.8439C88.5035 30.5976 88.0726 30.2354 87.7554 29.7572C87.4429 29.2742 87.2866 28.6729 87.2866 27.9532C87.2866 27.3472 87.3979 26.8382 87.6205 26.4262C87.843 26.0143 88.146 25.6829 88.5295 25.4319C88.9131 25.181 89.3487 24.9916 89.8364 24.8637C90.3288 24.7359 90.8449 24.6459 91.3847 24.5939C92.0191 24.5276 92.5305 24.466 92.9188 24.4092C93.307 24.3476 93.5887 24.2577 93.7639 24.1393C93.9391 24.0209 94.0267 23.8457 94.0267 23.6137V23.5711C94.0267 23.1213 93.8847 22.7733 93.6006 22.5271C93.3212 22.2809 92.9235 22.1578 92.4074 22.1578C91.8629 22.1578 91.4296 22.2785 91.1077 22.52C90.7857 22.7567 90.5726 23.055 90.4685 23.4149L87.6702 23.1876C87.8122 22.5247 88.0916 21.9518 88.5082 21.4689C88.9249 20.9812 89.4623 20.6071 90.1205 20.3467C90.7833 20.0815 91.5504 19.949 92.4216 19.949C93.0277 19.949 93.6077 20.02 94.1616 20.162C94.7204 20.3041 95.2152 20.5242 95.646 20.8225C96.0816 21.1208 96.4249 21.5044 96.6759 21.9731C96.9268 22.4371 97.0523 22.9935 97.0523 23.6421V31.0001H94.183V29.4873H94.0977C93.9225 29.8282 93.6882 30.1289 93.3946 30.3893C93.101 30.645 92.7483 30.8462 92.3364 30.993C91.9244 31.135 91.4486 31.2061 90.9088 31.2061ZM91.7753 29.118C92.2204 29.118 92.6134 29.0304 92.9543 28.8552C93.2952 28.6753 93.5627 28.4338 93.7568 28.1308C93.9509 27.8278 94.048 27.4845 94.048 27.101V25.9433C93.9533 26.0048 93.8231 26.0617 93.6574 26.1137C93.4964 26.1611 93.3141 26.2061 93.1105 26.2487C92.9069 26.2866 92.7033 26.3221 92.4997 26.3552C92.2961 26.3836 92.1115 26.4097 91.9457 26.4333C91.5906 26.4854 91.2805 26.5683 91.0153 26.6819C90.7502 26.7956 90.5442 26.9494 90.3974 27.1436C90.2507 27.333 90.1773 27.5697 90.1773 27.8538C90.1773 28.2657 90.3264 28.5806 90.6247 28.7984C90.9277 29.0115 91.3113 29.118 91.7753 29.118ZM97.3844 18.9902V16.4546H109.33V18.9902H104.877V31.0001H101.838V18.9902H97.3844ZM114.031 31.2132C112.908 31.2132 111.942 30.9859 111.133 30.5313C110.328 30.0721 109.708 29.4234 109.272 28.5853C108.836 27.7425 108.619 26.7458 108.619 25.5953C108.619 24.4731 108.836 23.4883 109.272 22.6407C109.708 21.7932 110.321 21.1327 111.112 20.6592C111.907 20.1857 112.84 19.949 113.91 19.949C114.629 19.949 115.299 20.065 115.92 20.297C116.545 20.5242 117.089 20.8675 117.553 21.3268C118.022 21.7861 118.387 22.3637 118.647 23.0598C118.907 23.751 119.038 24.5607 119.038 25.4887V26.3197H109.826V24.4447H116.19C116.19 24.0091 116.095 23.6232 115.906 23.287C115.716 22.9509 115.453 22.6881 115.117 22.4987C114.786 22.3046 114.4 22.2075 113.96 22.2075C113.5 22.2075 113.093 22.314 112.738 22.5271C112.388 22.7354 112.113 23.0171 111.914 23.3723C111.715 23.7226 111.613 24.1133 111.609 24.5441V26.3268C111.609 26.8666 111.708 27.333 111.907 27.726C112.111 28.1189 112.397 28.422 112.766 28.635C113.136 28.8481 113.574 28.9546 114.08 28.9546C114.416 28.9546 114.724 28.9073 115.004 28.8126C115.283 28.7179 115.522 28.5759 115.721 28.3865C115.92 28.1971 116.071 27.9651 116.175 27.6904L118.974 27.8751C118.832 28.5474 118.54 29.1346 118.1 29.6365C117.665 30.1336 117.101 30.5219 116.41 30.8012C115.723 31.0759 114.93 31.2132 114.031 31.2132ZM125.341 31.2132C124.224 31.2132 123.262 30.9764 122.458 30.5029C121.657 30.0247 121.042 29.3618 120.611 28.5143C120.185 27.6668 119.972 26.6914 119.972 25.5882C119.972 24.4707 120.187 23.4906 120.618 22.6478C121.054 21.8003 121.672 21.1398 122.472 20.6663C123.272 20.1881 124.224 19.949 125.327 19.949C126.279 19.949 127.112 20.1218 127.827 20.4674C128.542 20.8131 129.108 21.2984 129.524 21.9234C129.941 22.5484 130.171 23.2823 130.213 24.1251H127.358C127.278 23.5806 127.065 23.1426 126.719 22.8112C126.378 22.475 125.931 22.3069 125.377 22.3069C124.908 22.3069 124.498 22.4348 124.148 22.6904C123.802 22.9414 123.532 23.3083 123.338 23.7913C123.144 24.2742 123.047 24.859 123.047 25.5456C123.047 26.2416 123.142 26.8334 123.331 27.3211C123.525 27.8088 123.797 28.1805 124.148 28.4362C124.498 28.6919 124.908 28.8197 125.377 28.8197C125.722 28.8197 126.032 28.7487 126.307 28.6066C126.586 28.4646 126.816 28.2586 126.996 27.9887C127.181 27.7141 127.301 27.385 127.358 27.0015H130.213C130.166 27.8349 129.939 28.5688 129.531 29.2032C129.129 29.833 128.573 30.3254 127.862 30.6805C127.152 31.0356 126.312 31.2132 125.341 31.2132ZM134.576 24.6933V31.0001H131.55V16.4546H134.491V22.0157H134.619C134.865 21.3718 135.262 20.8675 135.812 20.5029C136.361 20.1336 137.05 19.949 137.878 19.949C138.636 19.949 139.297 20.1147 139.86 20.4461C140.428 20.7728 140.869 21.2439 141.181 21.8595C141.498 22.4703 141.655 23.2018 141.65 24.0541V31.0001H138.624V24.5939C138.629 23.9215 138.459 23.3983 138.113 23.0242C137.772 22.6502 137.294 22.4632 136.678 22.4632C136.266 22.4632 135.902 22.5508 135.584 22.726C135.272 22.9011 135.026 23.1568 134.846 23.493C134.671 23.8244 134.581 24.2245 134.576 24.6933Z" fill="white"/>
<path d="M32.9682 8L36.6978 11.6149L31.6884 16.4681C29.9856 18.1193 27.731 18.9549 25.4985 18.9521C23.2676 18.9549 21.0114 18.1193 19.3086 16.4681L14.2993 11.6149L18.0289 8L23.0382 12.8532C23.7247 13.5154 24.599 13.8379 25.4971 13.8408C26.3951 13.8379 27.2694 13.5169 27.9558 12.8532L32.9652 8H32.9682ZM41.4985 30.7354L36.4892 25.8822C35.8057 25.2171 35.4743 24.37 35.4713 23.5C35.4743 22.6285 35.8057 21.7814 36.4892 21.1178L41.4985 16.2646L37.7689 12.6497L32.7595 17.503C31.0552 19.1527 30.1928 21.3385 30.1957 23.5C30.1928 25.6615 31.0552 27.8473 32.7595 29.4956L37.7689 34.3489L41.5 30.7354H41.4985ZM18.0304 39L23.0397 34.1467C23.7262 33.4831 24.599 33.1621 25.4985 33.1592C26.3965 33.1621 27.2709 33.4831 27.9573 34.1467L32.9667 39L36.6978 35.3851L31.6884 30.5319C29.9856 28.8807 27.731 28.0451 25.4985 28.0479C23.2676 28.0451 21.0114 28.8807 19.3086 30.5319L14.2993 35.3851L18.0304 39ZM9.5 16.2646L14.5094 21.1178C15.1928 21.7829 15.5242 22.63 15.5272 23.5C15.5242 24.37 15.1928 25.2171 14.5094 25.8822L9.5 30.7354L13.2311 34.3503L18.2405 29.497C19.9448 27.8473 20.8073 25.6629 20.8043 23.5014C20.8073 21.34 19.9448 19.1542 18.2405 17.5044L13.2311 12.6511L9.5 16.266V16.2646Z" fill="white"/>
</svg>
