<svg width="158" height="48" viewBox="0 0 158 48" fill="none" xmlns="http://www.w3.org/2000/svg">
<path d="M50.608 30.9999V29.1746L57.8665 18.99H50.5938V16.4544H61.7301V18.2797L54.4645 28.4644H61.7443V30.9999H50.608ZM68.4188 31.213C67.2967 31.213 66.3308 30.9857 65.5211 30.5311C64.7162 30.0719 64.0959 29.4232 63.6603 28.5851C63.2247 27.7423 63.0069 26.7456 63.0069 25.5951C63.0069 24.4729 63.2247 23.4881 63.6603 22.6405C64.0959 21.793 64.7091 21.1325 65.4998 20.659C66.2952 20.1855 67.228 19.9488 68.2981 19.9488C69.0178 19.9488 69.6878 20.0648 70.308 20.2968C70.933 20.524 71.4775 20.8673 71.9415 21.3266C72.4103 21.7859 72.7749 22.3635 73.0353 23.0596C73.2957 23.7508 73.4259 24.5605 73.4259 25.4885V26.3195H64.2143V24.4445H70.5779C70.5779 24.0089 70.4832 23.623 70.2938 23.2868C70.1044 22.9507 69.8416 22.6879 69.5055 22.4985C69.174 22.3044 68.7881 22.2073 68.3478 22.2073C67.8885 22.2073 67.4813 22.3138 67.1262 22.5269C66.7758 22.7352 66.5012 23.0169 66.3023 23.3721C66.1035 23.7224 66.0017 24.1131 65.9969 24.5439V26.3266C65.9969 26.8664 66.0964 27.3328 66.2952 27.7258C66.4988 28.1187 66.7853 28.4218 67.1546 28.6348C67.5239 28.8479 67.9619 28.9544 68.4685 28.9544C68.8047 28.9544 69.1125 28.9071 69.3918 28.8124C69.6712 28.7177 69.9103 28.5757 70.1092 28.3863C70.308 28.1969 70.4595 27.9649 70.5637 27.6902L73.362 27.8749C73.22 28.5472 72.9288 29.1344 72.4884 29.6363C72.0528 30.1334 71.4894 30.5217 70.7981 30.801C70.1115 31.0757 69.3184 31.213 68.4188 31.213ZM83.8771 23.2016L81.1072 23.3721C81.0598 23.1353 80.958 22.9222 80.8018 22.7329C80.6455 22.5387 80.4396 22.3848 80.1839 22.2712C79.9329 22.1528 79.6323 22.0937 79.2819 22.0937C78.8131 22.0937 78.4178 22.1931 78.0958 22.3919C77.7738 22.5861 77.6129 22.8465 77.6129 23.1732C77.6129 23.4336 77.717 23.6538 77.9254 23.8337C78.1337 24.0136 78.4912 24.158 78.9978 24.2669L80.9722 24.6647C82.0328 24.8825 82.8236 25.2329 83.3444 25.7158C83.8652 26.1988 84.1256 26.8332 84.1256 27.6192C84.1256 28.3342 83.9149 28.9615 83.4935 29.5013C83.0769 30.0411 82.504 30.4625 81.7748 30.7655C81.0504 31.0638 80.2147 31.213 79.2677 31.213C77.8236 31.213 76.673 30.9123 75.816 30.311C74.9637 29.7049 74.4642 28.8811 74.3174 27.8394L77.2933 27.6831C77.3832 28.1235 77.601 28.4597 77.9467 28.6917C78.2923 28.9189 78.735 29.0326 79.2748 29.0326C79.8051 29.0326 80.2312 28.9308 80.5532 28.7272C80.8799 28.5188 81.0456 28.2513 81.0504 27.9246C81.0456 27.65 80.9296 27.4251 80.7023 27.2499C80.4751 27.07 80.1247 26.9327 79.6512 26.838L77.762 26.4615C76.6967 26.2485 75.9036 25.8792 75.3827 25.3536C74.8666 24.828 74.6086 24.158 74.6086 23.3437C74.6086 22.6429 74.798 22.0392 75.1768 21.5326C75.5603 21.0259 76.0977 20.6353 76.789 20.3607C77.485 20.0861 78.2994 19.9488 79.2322 19.9488C80.61 19.9488 81.6943 20.24 82.485 20.8223C83.2805 21.4047 83.7445 22.1978 83.8771 23.2016ZM91.2334 20.0908V22.3635H84.6638V20.0908H91.2334ZM86.1553 17.4772H89.1808V27.6476C89.1808 27.927 89.2234 28.1448 89.3087 28.301C89.3939 28.4526 89.5123 28.5591 89.6638 28.6206C89.82 28.6822 90 28.713 90.2036 28.713C90.3456 28.713 90.4876 28.7011 90.6297 28.6775C90.7717 28.649 90.8806 28.6277 90.9564 28.6135L91.4322 30.865C91.2807 30.9123 91.0677 30.9668 90.793 31.0283C90.5184 31.0946 90.1846 31.1348 89.7916 31.149C89.0625 31.1775 88.4232 31.0804 87.874 30.8579C87.3295 30.6353 86.9057 30.2897 86.6027 29.8209C86.2997 29.3522 86.1505 28.7603 86.1553 28.0454V17.4772ZM94.4722 35.0908C94.0886 35.0908 93.7288 35.06 93.3926 34.9985C93.0612 34.9417 92.7866 34.8683 92.5687 34.7783L93.2506 32.5198C93.6057 32.6287 93.9253 32.6879 94.2094 32.6973C94.4982 32.7068 94.7468 32.6405 94.9551 32.4985C95.1682 32.3564 95.341 32.115 95.4736 31.774L95.6511 31.3124L91.7378 20.0908H94.9196L97.1781 28.1022H97.2918L99.5716 20.0908H102.775L98.5347 32.1789C98.3311 32.766 98.0541 33.2774 97.7037 33.713C97.358 34.1533 96.9201 34.4919 96.3898 34.7286C95.8595 34.9701 95.2203 35.0908 94.4722 35.0908ZM103.78 30.9999V16.4544H109.604C110.674 16.4544 111.566 16.6131 112.281 16.9303C112.996 17.2475 113.534 17.6879 113.893 18.2513C114.253 18.81 114.433 19.454 114.433 20.1831C114.433 20.7513 114.32 21.2508 114.092 21.6817C113.865 22.1079 113.553 22.4582 113.155 22.7329C112.762 23.0027 112.312 23.1945 111.805 23.3081V23.4502C112.359 23.4739 112.878 23.6301 113.361 23.9189C113.848 24.2078 114.244 24.6126 114.547 25.1334C114.85 25.6495 115.001 26.2651 115.001 26.98C115.001 27.7518 114.81 28.4407 114.426 29.0468C114.047 29.6481 113.486 30.124 112.743 30.4743C112 30.8247 111.083 30.9999 109.994 30.9999H103.78ZM106.855 28.4857H109.362C110.219 28.4857 110.844 28.3223 111.237 27.9956C111.63 27.6642 111.827 27.2239 111.827 26.6746C111.827 26.2722 111.73 25.917 111.536 25.6093C111.341 25.3015 111.064 25.06 110.705 24.8848C110.349 24.7097 109.926 24.6221 109.433 24.6221H106.855V28.4857ZM106.855 22.5411H109.135C109.556 22.5411 109.93 22.4677 110.257 22.3209C110.589 22.1694 110.849 21.9563 111.038 21.6817C111.232 21.4071 111.33 21.078 111.33 20.6945C111.33 20.1689 111.143 19.7452 110.768 19.4232C110.399 19.1012 109.874 18.9402 109.192 18.9402H106.855V22.5411ZM116.346 30.9999V20.0908H119.371V30.9999H116.346ZM117.866 18.6846C117.416 18.6846 117.03 18.5354 116.708 18.2371C116.391 17.9341 116.232 17.5719 116.232 17.1505C116.232 16.7338 116.391 16.3763 116.708 16.078C117.03 15.775 117.416 15.6235 117.866 15.6235C118.315 15.6235 118.699 15.775 119.016 16.078C119.338 16.3763 119.499 16.7338 119.499 17.1505C119.499 17.5719 119.338 17.9341 119.016 18.2371C118.699 18.5354 118.315 18.6846 117.866 18.6846ZM126.997 20.0908V22.3635H120.428V20.0908H126.997ZM121.919 17.4772H124.945V27.6476C124.945 27.927 124.988 28.1448 125.073 28.301C125.158 28.4526 125.276 28.5591 125.428 28.6206C125.584 28.6822 125.764 28.713 125.968 28.713C126.11 28.713 126.252 28.7011 126.394 28.6775C126.536 28.649 126.645 28.6277 126.72 28.6135L127.196 30.865C127.045 30.9123 126.832 30.9668 126.557 31.0283C126.282 31.0946 125.949 31.1348 125.556 31.149C124.827 31.1775 124.187 31.0804 123.638 30.8579C123.094 30.6353 122.67 30.2897 122.367 29.8209C122.064 29.3522 121.915 28.7603 121.919 28.0454V17.4772ZM133.223 31.213C132.101 31.213 131.135 30.9857 130.325 30.5311C129.52 30.0719 128.9 29.4232 128.464 28.5851C128.029 27.7423 127.811 26.7456 127.811 25.5951C127.811 24.4729 128.029 23.4881 128.464 22.6405C128.9 21.793 129.513 21.1325 130.304 20.659C131.099 20.1855 132.032 19.9488 133.102 19.9488C133.822 19.9488 134.492 20.0648 135.112 20.2968C135.737 20.524 136.281 20.8673 136.745 21.3266C137.214 21.7859 137.579 22.3635 137.839 23.0596C138.1 23.7508 138.23 24.5605 138.23 25.4885V26.3195H129.018V24.4445H135.382C135.382 24.0089 135.287 23.623 135.098 23.2868C134.908 22.9507 134.646 22.6879 134.309 22.4985C133.978 22.3044 133.592 22.2073 133.152 22.2073C132.692 22.2073 132.285 22.3138 131.93 22.5269C131.58 22.7352 131.305 23.0169 131.106 23.3721C130.907 23.7224 130.806 24.1131 130.801 24.5439V26.3266C130.801 26.8664 130.9 27.3328 131.099 27.7258C131.303 28.1187 131.589 28.4218 131.959 28.6348C132.328 28.8479 132.766 28.9544 133.272 28.9544C133.609 28.9544 133.916 28.9071 134.196 28.8124C134.475 28.7177 134.714 28.5757 134.913 28.3863C135.112 28.1969 135.263 27.9649 135.368 27.6902L138.166 27.8749C138.024 28.5472 137.733 29.1344 137.292 29.6363C136.857 30.1334 136.293 30.5217 135.602 30.801C134.915 31.0757 134.122 31.213 133.223 31.213Z" fill="white"/>
<path d="M29.5 18.9279V9H19.5V18.9279H9.5V29.0721H19.5V39H29.5V29.0721H39.5V18.9279H29.5ZM29.5 28.8558H19.5V19.1457H29.5V28.8558Z" fill="white"/>
</svg>
