<svg width="158" height="48" viewBox="0 0 158 48" fill="none" xmlns="http://www.w3.org/2000/svg">
<path d="M51.7642 30.9999V16.4544H61.5653V18.99H54.8395V22.4559H61.0611V24.9914H54.8395V28.4644H61.5938V30.9999H51.7642ZM66.379 24.6931V30.9999H63.3535V20.0908H66.237V22.0155H66.3648C66.6063 21.3811 67.0112 20.8792 67.5793 20.5098C68.1475 20.1358 68.8364 19.9488 69.6461 19.9488C70.4037 19.9488 71.0642 20.1145 71.6276 20.4459C72.1911 20.7774 72.629 21.2508 72.9415 21.8664C73.254 22.4772 73.4103 23.2063 73.4103 24.0539V30.9999H70.3847V24.5937C70.3895 23.926 70.219 23.4052 69.8734 23.0311C69.5277 22.6524 69.0519 22.463 68.4458 22.463C68.0386 22.463 67.6788 22.5506 67.3663 22.7258C67.0585 22.9009 66.817 23.1566 66.6418 23.4928C66.4714 23.8242 66.3838 24.2243 66.379 24.6931ZM80.1665 31.213C79.0443 31.213 78.0784 30.9857 77.2687 30.5311C76.4638 30.0719 75.8436 29.4232 75.408 28.5851C74.9723 27.7423 74.7545 26.7456 74.7545 25.5951C74.7545 24.4729 74.9723 23.4881 75.408 22.6405C75.8436 21.793 76.4567 21.1325 77.2474 20.659C78.0429 20.1855 78.9757 19.9488 80.0457 19.9488C80.7654 19.9488 81.4354 20.0648 82.0557 20.2968C82.6807 20.524 83.2252 20.8673 83.6892 21.3266C84.158 21.7859 84.5225 22.3635 84.783 23.0596C85.0434 23.7508 85.1736 24.5605 85.1736 25.4885V26.3195H75.9619V24.4445H82.3256C82.3256 24.0089 82.2309 23.623 82.0415 23.2868C81.8521 22.9507 81.5893 22.6879 81.2531 22.4985C80.9217 22.3044 80.5358 22.2073 80.0955 22.2073C79.6362 22.2073 79.229 22.3138 78.8739 22.5269C78.5235 22.7352 78.2489 23.0169 78.05 23.3721C77.8511 23.7224 77.7493 24.1131 77.7446 24.5439V26.3266C77.7446 26.8664 77.844 27.3328 78.0429 27.7258C78.2465 28.1187 78.533 28.4218 78.9023 28.6348C79.2716 28.8479 79.7096 28.9544 80.2162 28.9544C80.5524 28.9544 80.8601 28.9071 81.1395 28.8124C81.4188 28.7177 81.658 28.5757 81.8568 28.3863C82.0557 28.1969 82.2072 27.9649 82.3114 27.6902L85.1097 27.8749C84.9676 28.5472 84.6764 29.1344 84.2361 29.6363C83.8005 30.1334 83.237 30.5217 82.5457 30.801C81.8592 31.0757 81.0661 31.213 80.1665 31.213ZM86.548 30.9999V20.0908H89.4813V21.9942H89.5949C89.7938 21.3171 90.1276 20.8058 90.5963 20.4601C91.0651 20.1097 91.6048 19.9346 92.2156 19.9346C92.3671 19.9346 92.5305 19.944 92.7057 19.963C92.8809 19.9819 93.0348 20.0079 93.1673 20.0411V22.7258C93.0253 22.6831 92.8288 22.6453 92.5778 22.6121C92.3269 22.579 92.0973 22.5624 91.8889 22.5624C91.4438 22.5624 91.0461 22.6595 90.6957 22.8536C90.3501 23.043 90.0755 23.3081 89.8719 23.649C89.673 23.99 89.5736 24.3829 89.5736 24.828V30.9999H86.548ZM98.5386 35.3181C97.5585 35.3181 96.718 35.1831 96.0173 34.9133C95.3212 34.6481 94.7673 34.2859 94.3553 33.8266C93.9434 33.3673 93.6759 32.8512 93.5528 32.2783L96.3511 31.9019C96.4363 32.1197 96.5712 32.3233 96.7559 32.5127C96.9406 32.7021 97.1844 32.8536 97.4874 32.9672C97.7952 33.0856 98.1692 33.1448 98.6096 33.1448C99.2677 33.1448 99.8099 32.9838 100.236 32.6618C100.667 32.3446 100.882 31.8119 100.882 31.0638V29.0681H100.754C100.622 29.3711 100.423 29.6576 100.158 29.9275C99.8927 30.1973 99.5518 30.4175 99.1352 30.588C98.7185 30.7584 98.2213 30.8437 97.6437 30.8437C96.8245 30.8437 96.0788 30.6543 95.4065 30.2755C94.7388 29.8919 94.2062 29.3072 93.8085 28.5212C93.4155 27.7305 93.219 26.7314 93.219 25.524C93.219 24.2883 93.4202 23.2561 93.8227 22.4275C94.2251 21.5989 94.7602 20.9786 95.4278 20.5667C96.1001 20.1547 96.8364 19.9488 97.6366 19.9488C98.2474 19.9488 98.7587 20.0529 99.1707 20.2613C99.5826 20.4649 99.914 20.7205 100.165 21.0283C100.421 21.3313 100.617 21.6296 100.754 21.9232H100.868V20.0908H103.872V31.1064C103.872 32.0345 103.645 32.811 103.191 33.436C102.736 34.061 102.106 34.5297 101.301 34.8422C100.501 35.1595 99.5802 35.3181 98.5386 35.3181ZM98.6025 28.5709C99.0902 28.5709 99.5021 28.4502 99.8383 28.2087C100.179 27.9625 100.44 27.6121 100.62 27.1576C100.804 26.6983 100.897 26.149 100.897 25.5098C100.897 24.8706 100.807 24.3167 100.627 23.8479C100.447 23.3744 100.186 23.0075 99.8454 22.7471C99.5045 22.4866 99.0902 22.3564 98.6025 22.3564C98.1053 22.3564 97.6863 22.4914 97.3454 22.7613C97.0045 23.0264 96.7464 23.3957 96.5712 23.8692C96.396 24.3427 96.3085 24.8896 96.3085 25.5098C96.3085 26.1396 96.396 26.6841 96.5712 27.1434C96.7512 27.5979 97.0092 27.9507 97.3454 28.2016C97.6863 28.4478 98.1053 28.5709 98.6025 28.5709ZM110.652 31.213C109.529 31.213 108.564 30.9857 107.754 30.5311C106.949 30.0719 106.329 29.4232 105.893 28.5851C105.458 27.7423 105.24 26.7456 105.24 25.5951C105.24 24.4729 105.458 23.4881 105.893 22.6405C106.329 21.793 106.942 21.1325 107.733 20.659C108.528 20.1855 109.461 19.9488 110.531 19.9488C111.251 19.9488 111.921 20.0648 112.541 20.2968C113.166 20.524 113.71 20.8673 114.174 21.3266C114.643 21.7859 115.008 22.3635 115.268 23.0596C115.529 23.7508 115.659 24.5605 115.659 25.4885V26.3195H106.447V24.4445H112.811C112.811 24.0089 112.716 23.623 112.527 23.2868C112.337 22.9507 112.074 22.6879 111.738 22.4985C111.407 22.3044 111.021 22.2073 110.581 22.2073C110.121 22.2073 109.714 22.3138 109.359 22.5269C109.009 22.7352 108.734 23.0169 108.535 23.3721C108.336 23.7224 108.234 24.1131 108.23 24.5439V26.3266C108.23 26.8664 108.329 27.3328 108.528 27.7258C108.732 28.1187 109.018 28.4218 109.387 28.6348C109.757 28.8479 110.195 28.9544 110.701 28.9544C111.038 28.9544 111.345 28.9071 111.625 28.8124C111.904 28.7177 112.143 28.5757 112.342 28.3863C112.541 28.1969 112.692 27.9649 112.797 27.6902L115.595 27.8749C115.453 28.5472 115.162 29.1344 114.721 29.6363C114.286 30.1334 113.722 30.5217 113.031 30.801C112.344 31.0757 111.551 31.213 110.652 31.213ZM122.836 20.0908V22.3635H116.266V20.0908H122.836ZM117.758 17.4772H120.783V27.6476C120.783 27.927 120.826 28.1448 120.911 28.301C120.996 28.4526 121.115 28.5591 121.266 28.6206C121.422 28.6822 121.602 28.713 121.806 28.713C121.948 28.713 122.09 28.7011 122.232 28.6775C122.374 28.649 122.483 28.6277 122.559 28.6135L123.035 30.865C122.883 30.9123 122.67 30.9668 122.395 31.0283C122.121 31.0946 121.787 31.1348 121.394 31.149C120.665 31.1775 120.026 31.0804 119.476 30.8579C118.932 30.6353 118.508 30.2897 118.205 29.8209C117.902 29.3522 117.753 28.7603 117.758 28.0454V17.4772ZM124.207 30.9999V20.0908H127.232V30.9999H124.207ZM125.726 18.6846C125.277 18.6846 124.891 18.5354 124.569 18.2371C124.252 17.9341 124.093 17.5719 124.093 17.1505C124.093 16.7338 124.252 16.3763 124.569 16.078C124.891 15.775 125.277 15.6235 125.726 15.6235C126.176 15.6235 126.56 15.775 126.877 16.078C127.199 16.3763 127.36 16.7338 127.36 17.1505C127.36 17.5719 127.199 17.9341 126.877 18.2371C126.56 18.5354 126.176 18.6846 125.726 18.6846ZM131.584 20.0908L133.587 23.9047L135.64 20.0908H138.743L135.583 25.5454L138.829 30.9999H135.739L133.587 27.2286L131.471 30.9999H128.346L131.584 25.5454L128.459 20.0908H131.584Z" fill="white"/>
<path d="M22.7393 20.2692C25.1635 14.4908 33.4936 12.9633 37.8138 17.5499C42.1748 21.6078 41.0397 29.5768 35.7558 32.2635C36.2526 29.0128 35.1555 25.6548 32.9573 23.3595C30.4406 20.6225 26.3667 19.394 22.7393 20.2678V20.2692ZM34.479 30.6925C34.4818 27.1306 32.4591 23.9452 29.3421 22.3742C30.7142 29.4858 23.8418 36.2073 16.7082 34.6295C18.2177 37.8299 21.3891 39.954 25.0587 39.9974C30.1806 40.1211 34.5485 35.7425 34.4777 30.6925H34.479ZM23.1408 28.7723C17.2717 27.7571 13.2278 21.5398 14.7454 15.7343C9.0641 18.1967 7.67302 26.5436 12.1824 30.7115C16.2427 35.0127 24.0038 33.9881 26.82 28.8321C25.6249 29.0237 24.3237 28.9992 23.1422 28.7723H23.1408ZM15.8357 18.2647C15.8357 21.7464 17.7617 24.8666 20.7671 26.477C18.935 19.2391 25.8808 12.0215 33.2377 13.6238C28.5391 5.43591 15.8153 8.8293 15.8357 18.266V18.2647Z" fill="white"/>
</svg>
