<svg width="1340" height="134" viewBox="0 0 1340 134" fill="none" xmlns="http://www.w3.org/2000/svg">
<path d="M24.888 90.2193C25.376 94.8553 26.901 98.8813 29.463 102.297C32.025 105.591 35.38 108.153 39.528 109.983C43.798 111.691 48.556 112.545 53.802 112.545C61.244 112.545 67.344 111.203 72.102 108.519C76.982 105.835 79.422 101.809 79.422 96.4413C79.422 92.7813 78.019 89.8533 75.213 87.6573C72.407 85.4613 68.625 83.7533 63.867 82.5333C59.231 81.1913 54.168 79.9713 48.678 78.8733C43.188 77.6533 37.698 76.2503 32.208 74.6643C26.718 72.9563 21.594 70.6383 16.836 67.7103C12.2 64.7823 8.479 60.9393 5.673 56.1813C2.867 51.3013 1.464 45.1403 1.464 37.6983C1.464 30.5003 3.599 24.0953 7.869 18.4833C12.139 12.7493 18.056 8.23531 25.62 4.94132C33.306 1.64732 42.09 0.00031656 51.972 0.00031656C61.488 0.00031656 69.967 1.89131 77.409 5.67331C84.851 9.33331 90.707 14.4573 94.977 21.0453C99.369 27.6333 101.565 35.1363 101.565 43.5543H77.043C76.555 36.4783 74.176 31.0493 69.906 27.2673C65.758 23.3633 59.475 21.4113 51.057 21.4113C42.883 21.4113 36.6 22.9363 32.208 25.9863C27.938 28.9143 25.803 32.8183 25.803 37.6983C25.803 41.7243 27.206 44.8963 30.012 47.2143C32.818 49.5323 36.539 51.3623 41.175 52.7043C45.811 54.0463 50.874 55.2663 56.364 56.3643C61.976 57.4623 67.527 58.8653 73.017 60.5733C78.507 62.1593 83.57 64.3553 88.206 67.1613C92.842 69.8453 96.563 73.5663 99.369 78.3243C102.175 82.9603 103.578 88.9993 103.578 96.4413C103.578 108.275 99.125 117.486 90.219 124.074C81.313 130.662 68.808 133.956 52.704 133.956C42.822 133.956 33.977 132.065 26.169 128.283C18.361 124.501 12.139 119.316 7.503 112.728C2.867 106.14 0.365999 98.6373 -8.53091e-07 90.2193H24.888ZM144.388 2.92831H167.629V131.028H144.388V2.92831ZM104.128 2.92831H207.706V23.2413H104.128V2.92831ZM268.099 133.956C254.557 133.956 243.028 130.967 233.512 124.989C224.118 118.889 216.981 110.776 212.101 100.65C207.221 90.5243 204.781 79.2393 204.781 66.7953C204.781 57.6453 206.123 49.0443 208.807 40.9923C211.613 32.8183 215.7 25.6813 221.068 19.5813C226.436 13.4813 233.024 8.72331 240.832 5.30731C248.762 1.76932 257.851 0.00031656 268.099 0.00031656C278.225 0.00031656 287.192 1.76932 295 5.30731C302.93 8.72331 309.579 13.4813 314.947 19.5813C320.315 25.6813 324.341 32.8183 327.025 40.9923C329.831 49.0443 331.234 57.6453 331.234 66.7953C331.234 79.2393 328.794 90.5243 323.914 100.65C319.034 110.776 311.897 118.889 302.503 124.989C293.109 130.967 281.641 133.956 268.099 133.956ZM268.099 112.545C277.005 112.545 284.325 110.41 290.059 106.14C295.915 101.748 300.185 96.0753 302.869 89.1213C305.675 82.1673 307.078 74.7253 307.078 66.7953C307.078 58.9873 305.675 51.6063 302.869 44.6523C300.185 37.6983 295.915 32.0863 290.059 27.8163C284.325 23.5463 277.005 21.4113 268.099 21.4113C259.193 21.4113 251.812 23.5463 245.956 27.8163C240.222 32.0863 235.952 37.6983 233.146 44.6523C230.462 51.6063 229.12 58.9873 229.12 66.7953C229.12 74.7253 230.462 82.1673 233.146 89.1213C235.952 96.0753 240.222 101.748 245.956 106.14C251.812 110.41 259.193 112.545 268.099 112.545ZM341.423 131.028V2.92831H387.173C400.715 2.92831 412.183 5.73431 421.577 11.3463C430.971 16.8363 438.108 24.4003 442.988 34.0383C447.868 43.5543 450.308 54.4733 450.308 66.7953C450.308 79.2393 447.868 90.2803 442.988 99.9183C438.108 109.556 430.971 117.181 421.577 122.793C412.183 128.283 400.715 131.028 387.173 131.028H341.423ZM364.847 110.532H387.173C396.201 110.532 403.582 108.519 409.316 104.493C415.05 100.467 419.259 95.1603 421.943 88.5723C424.627 81.9843 425.969 74.7253 425.969 66.7953C425.969 58.9873 424.627 51.7893 421.943 45.2013C419.259 38.6133 415.05 33.3063 409.316 29.2803C403.582 25.2543 396.201 23.2413 387.173 23.2413H364.847V110.532ZM460.269 2.92831H483.693V131.028H460.269V2.92831ZM557.086 133.956C543.544 133.956 532.015 130.967 522.499 124.989C513.105 118.889 505.968 110.776 501.088 100.65C496.208 90.5243 493.768 79.2393 493.768 66.7953C493.768 57.6453 495.11 49.0443 497.794 40.9923C500.6 32.8183 504.687 25.6813 510.055 19.5813C515.423 13.4813 522.011 8.72331 529.819 5.30731C537.749 1.76932 546.838 0.00031656 557.086 0.00031656C567.212 0.00031656 576.179 1.76932 583.987 5.30731C591.917 8.72331 598.566 13.4813 603.934 19.5813C609.302 25.6813 613.328 32.8183 616.012 40.9923C618.818 49.0443 620.221 57.6453 620.221 66.7953C620.221 79.2393 617.781 90.5243 612.901 100.65C608.021 110.776 600.884 118.889 591.49 124.989C582.096 130.967 570.628 133.956 557.086 133.956ZM557.086 112.545C565.992 112.545 573.312 110.41 579.046 106.14C584.902 101.748 589.172 96.0753 591.856 89.1213C594.662 82.1673 596.065 74.7253 596.065 66.7953C596.065 58.9873 594.662 51.6063 591.856 44.6523C589.172 37.6983 584.902 32.0863 579.046 27.8163C573.312 23.5463 565.992 21.4113 557.086 21.4113C548.18 21.4113 540.799 23.5463 534.943 27.8163C529.209 32.0863 524.939 37.6983 522.133 44.6523C519.449 51.6063 518.107 58.9873 518.107 66.7953C518.107 74.7253 519.449 82.1673 522.133 89.1213C524.939 96.0753 529.209 101.748 534.943 106.14C540.799 110.41 548.18 112.545 557.086 112.545ZM696.803 2.92831H718.946L680.882 131.028H656.726L696.803 2.92831ZM729.194 2.92831L769.637 131.028H745.664L707.051 2.92831H729.194ZM678.32 82.3503H747.311V102.663H678.32V82.3503ZM830.883 133.956C817.341 133.956 805.812 130.967 796.296 124.989C786.902 118.889 779.765 110.776 774.885 100.65C770.005 90.5243 767.565 79.2393 767.565 66.7953C767.565 57.6453 768.907 49.0443 771.591 40.9923C774.397 32.8183 778.484 25.6813 783.852 19.5813C789.22 13.4813 795.808 8.72331 803.616 5.30731C811.546 1.76932 820.635 0.00031656 830.883 0.00031656C848.085 0.00031656 861.505 4.57532 871.143 13.7253C880.903 22.7533 886.759 34.9533 888.711 50.3253H864.006C863.396 46.1773 862.298 42.3343 860.712 38.7963C859.248 35.2583 857.174 32.2083 854.49 29.6463C851.928 26.9623 848.695 24.9493 844.791 23.6073C841.009 22.1433 836.373 21.4113 830.883 21.4113C821.977 21.4113 814.596 23.5463 808.74 27.8163C803.006 32.0863 798.736 37.6983 795.93 44.6523C793.246 51.6063 791.904 58.9873 791.904 66.7953C791.904 74.7253 793.246 82.1673 795.93 89.1213C798.736 96.0753 803.006 101.748 808.74 106.14C814.596 110.41 821.977 112.545 830.883 112.545C837.105 112.545 842.473 111.63 846.987 109.8C851.623 107.97 855.344 105.408 858.15 102.114C860.956 98.8203 862.908 94.9163 864.006 90.4023C865.226 85.8883 865.653 81.0083 865.287 75.7623L873.705 81.6183H830.883V61.3053H889.26C890.48 77.1653 888.833 90.5243 884.319 101.382C879.927 112.118 873.217 120.231 864.189 125.721C855.161 131.211 844.059 133.956 830.883 133.956ZM900.99 131.028V2.92831H989.745V23.2413H924.414V56.3643H982.425V76.8603H924.414V110.532H990.477V131.028H900.99ZM1072.96 131.028L1010.74 2.92831H1036.36L1098.4 131.028H1072.96ZM1002.32 2.92831H1024.83V131.028H1002.32V2.92831ZM1084.49 2.92831H1106.82V131.028H1084.49V2.92831ZM1238.83 78.8733C1237.98 89.8533 1235.17 99.4913 1230.42 107.787C1225.78 116.083 1219.25 122.549 1210.84 127.185C1202.54 131.699 1192.35 133.956 1180.27 133.956C1166.73 133.956 1155.2 130.967 1145.69 124.989C1136.29 118.889 1129.16 110.776 1124.28 100.65C1119.4 90.5243 1116.96 79.2393 1116.96 66.7953C1116.96 57.6453 1118.3 49.0443 1120.98 40.9923C1123.79 32.8183 1127.88 25.6813 1133.24 19.5813C1138.61 13.4813 1145.2 8.72331 1153.01 5.30731C1160.94 1.76932 1170.03 0.00031656 1180.27 0.00031656C1197.48 0.00031656 1210.9 4.57532 1220.53 13.7253C1230.29 22.7533 1236.15 34.9533 1238.1 50.3253H1213.4C1212.79 46.1773 1211.69 42.3343 1210.1 38.7963C1208.64 35.2583 1206.57 32.2083 1203.88 29.6463C1201.32 26.9623 1198.09 24.9493 1194.18 23.6073C1190.4 22.1433 1185.76 21.4113 1180.27 21.4113C1171.37 21.4113 1163.99 23.5463 1158.13 27.8163C1152.4 32.0863 1148.13 37.6983 1145.32 44.6523C1142.64 51.6063 1141.3 58.9873 1141.3 66.7953C1141.3 74.7253 1142.64 82.1673 1145.32 89.1213C1148.13 96.0753 1152.4 101.748 1158.13 106.14C1163.99 110.41 1171.37 112.545 1180.27 112.545C1186.25 112.545 1191.32 111.691 1195.46 109.983C1199.61 108.153 1203.03 105.713 1205.71 102.663C1208.4 99.6133 1210.41 96.0753 1211.75 92.0493C1213.21 88.0233 1214.13 83.6313 1214.5 78.8733H1238.83ZM1278.44 94.4283L1234.52 2.92831H1258.86L1290.15 70.8213H1283.74L1314.85 2.92831H1339.19L1295.27 94.4283H1278.44ZM1275.33 68.9913H1298.57V131.028H1275.33V68.9913Z" fill="white"/>
</svg>
