<svg width="240" height="240" viewBox="0 0 240 240" fill="none" xmlns="http://www.w3.org/2000/svg">
<path d="M209.7 62.0156L127.2 16.8749C124.996 15.6569 122.518 15.0181 120 15.0181C117.482 15.0181 115.004 15.6569 112.8 16.8749L30.3 62.0343C27.944 63.3234 25.9772 65.2214 24.6052 67.5302C23.2331 69.8389 22.5061 72.4737 22.5 75.1593V164.822C22.5061 167.507 23.2331 170.142 24.6052 172.451C25.9772 174.76 27.944 176.658 30.3 177.947L112.8 223.106C115.004 224.324 117.482 224.963 120 224.963C122.518 224.963 124.996 224.324 127.2 223.106L209.7 177.947C212.056 176.658 214.023 174.76 215.395 172.451C216.767 170.142 217.494 167.507 217.5 164.822V75.1687C217.499 72.4782 216.774 69.8376 215.402 67.5235C214.03 65.2094 212.06 63.307 209.7 62.0156ZM120 29.9999L195.328 71.2499L167.409 86.5218L92.0813 45.2718L120 29.9999ZM120 112.5L44.6719 71.2499L76.4625 53.8406L151.791 95.0906L120 112.5ZM202.5 164.859L127.5 205.912V125.466L157.5 109.05V142.5C157.5 144.489 158.29 146.397 159.697 147.803C161.103 149.21 163.011 150 165 150C166.989 150 168.897 149.21 170.303 147.803C171.71 146.397 172.5 144.489 172.5 142.5V100.837L202.5 84.4218V164.822V164.859Z" fill="#F3F3F3"/>
</svg>
