<svg width="240" height="240" viewBox="0 0 240 240" fill="none" xmlns="http://www.w3.org/2000/svg">
<path d="M165.001 217.5C165.001 219.489 164.211 221.397 162.805 222.803C161.398 224.21 159.49 225 157.501 225H82.5012C80.5121 225 78.6045 224.21 77.1979 222.803C75.7914 221.397 75.0012 219.489 75.0012 217.5C75.0012 215.511 75.7914 213.603 77.1979 212.197C78.6045 210.79 80.5121 210 82.5012 210H157.501C159.49 210 161.398 210.79 162.805 212.197C164.211 213.603 165.001 215.511 165.001 217.5ZM202.501 97.5C202.534 110.003 199.709 122.348 194.243 133.593C188.778 144.838 180.815 154.686 170.964 162.384C169.122 163.796 167.627 165.611 166.593 167.689C165.56 169.767 165.015 172.054 165.001 174.375V180C165.001 183.978 163.421 187.794 160.608 190.607C157.795 193.42 153.979 195 150.001 195H90.0012C86.023 195 82.2077 193.42 79.3946 190.607C76.5816 187.794 75.0012 183.978 75.0012 180V174.375C74.9997 172.082 74.4724 169.82 73.4599 167.762C72.4474 165.705 70.9766 163.907 69.1606 162.506C59.3337 154.853 51.3767 145.064 45.8916 133.882C40.4066 122.699 37.5374 110.415 37.5012 97.9594C37.2575 53.2781 73.37 16.0688 118.014 15C129.014 14.7349 139.956 16.673 150.196 20.7002C160.436 24.7274 169.767 30.7622 177.639 38.4496C185.512 46.137 191.767 55.3216 196.037 65.4627C200.306 75.6039 202.504 86.4967 202.501 97.5ZM155.307 99.6938C154.611 98.9965 153.784 98.4433 152.873 98.0658C151.963 97.6884 150.987 97.4941 150.001 97.4941C149.016 97.4941 148.04 97.6884 147.129 98.0658C146.219 98.4433 145.392 98.9965 144.695 99.6938L120.001 124.397L95.3075 99.6938C93.9002 98.2865 91.9915 97.4959 90.0012 97.4959C88.011 97.4959 86.1023 98.2865 84.695 99.6938C83.2877 101.101 82.4971 103.01 82.4971 105C82.4971 106.99 83.2877 108.899 84.695 110.306L112.501 138.103V172.5C112.501 174.489 113.291 176.397 114.698 177.803C116.104 179.21 118.012 180 120.001 180C121.99 180 123.898 179.21 125.305 177.803C126.711 176.397 127.501 174.489 127.501 172.5V138.103L155.307 110.306C156.005 109.61 156.558 108.783 156.935 107.872C157.313 106.962 157.507 105.986 157.507 105C157.507 104.014 157.313 103.038 156.935 102.128C156.558 101.217 156.005 100.39 155.307 99.6938Z" fill="#F3F3F3"/>
</svg>
