<svg width="240" height="240" viewBox="0 0 240 240" fill="none" xmlns="http://www.w3.org/2000/svg">
<path d="M155.419 210H195C198.978 210 202.794 208.42 205.607 205.607C208.42 202.794 210 198.978 210 195V159.703C209.994 158.473 209.685 157.264 209.101 156.181C208.517 155.099 207.676 154.176 206.651 153.496C205.627 152.815 204.451 152.397 203.227 152.277C202.002 152.158 200.768 152.342 199.631 152.812C196.973 153.91 194.126 154.474 191.25 154.472C178.847 154.472 168.75 144.066 168.75 131.287C168.75 118.509 178.847 108.103 191.25 108.103C194.126 108.101 196.973 108.665 199.631 109.763C200.774 110.235 202.015 110.419 203.245 110.296C204.475 110.173 205.656 109.748 206.682 109.058C207.709 108.369 208.549 107.437 209.127 106.344C209.706 105.252 210.006 104.033 210 102.797V67.5C210 63.5218 208.42 59.7064 205.607 56.8934C202.794 54.0804 198.978 52.5 195 52.5H161.044C161.183 51.2549 161.252 50.0029 161.25 48.75C161.25 39.7989 157.694 31.2145 151.365 24.8851C145.035 18.5558 136.451 15 127.5 15C118.549 15 109.965 18.5558 103.635 24.8851C97.3058 31.2145 93.75 39.7989 93.75 48.75C93.7478 50.0029 93.8167 51.2549 93.9563 52.5H60C56.0218 52.5 52.2064 54.0804 49.3934 56.8934C46.5804 59.7064 45 63.5218 45 67.5V97.7063C43.7549 97.5667 42.5029 97.4978 41.25 97.5C32.2989 97.5 23.7145 101.056 17.3851 107.385C11.0558 113.715 7.5 122.299 7.5 131.25C7.5 140.201 11.0558 148.785 17.3851 155.115C23.7145 161.444 32.2989 165 41.25 165C42.5029 165.002 43.7549 164.933 45 164.794V195C45 198.978 46.5804 202.794 49.3934 205.607C52.2064 208.42 56.0218 210 60 210H99.5813" fill="#F3F3F3"/>
</svg>
