<svg width="240" height="240" viewBox="0 0 240 240" fill="none" xmlns="http://www.w3.org/2000/svg">
<path d="M213.75 112.5C213.75 133.716 208.125 146.925 196.941 151.753C193.678 153.125 190.167 153.805 186.628 153.75C183.98 153.726 181.342 153.434 178.753 152.878C177.798 152.688 176.952 152.137 176.391 151.341C163.221 132.632 148.226 115.278 131.625 99.5344C130.18 98.1668 128.252 97.4292 126.263 97.4837C124.275 97.5382 122.389 98.3804 121.022 99.825C119.654 101.27 118.917 103.198 118.971 105.187C119.026 107.175 119.868 109.061 121.312 110.428C135.225 123.469 181.434 169.95 194.738 223.181C195.22 225.111 194.916 227.153 193.892 228.858C192.869 230.563 191.211 231.792 189.281 232.275C188.698 232.42 188.101 232.495 187.5 232.5C185.829 232.498 184.207 231.937 182.891 230.908C181.574 229.879 180.64 228.44 180.234 226.819C176.372 211.378 169.312 196.369 161.053 182.672C160.789 184.999 160.189 187.276 159.272 189.431C154.425 200.625 141.216 206.25 120 206.25C98.7844 206.25 85.575 200.625 80.7375 189.431C75.6281 177.637 80.3719 160.538 94.8 138.609C95.4375 137.672 96.075 136.734 96.675 135.797L93.8625 137.672C77.6625 148.378 64.0781 153.75 53.3344 153.75C49.7958 153.805 46.2843 153.125 43.0219 151.753C31.875 146.925 26.25 133.716 26.25 112.5C26.25 91.2844 31.875 78.075 43.0594 73.2375C54.8625 68.1281 71.9625 72.8719 93.8906 87.3L96.7031 89.175C96.0781 88.2375 95.4531 87.3 94.8281 86.3625C80.3813 64.4344 75.6375 47.3344 80.7656 35.5313C85.575 24.375 98.7844 18.75 120 18.75C141.216 18.75 154.425 24.375 159.263 35.5594C164.372 47.3625 159.628 64.4625 145.2 86.3906C144.575 87.3469 143.95 88.2844 143.325 89.2031L146.138 87.3281C168.066 72.8813 185.166 68.1375 196.969 73.2656C208.125 78.075 213.75 91.2844 213.75 112.5Z" fill="#F3F3F3"/>
</svg>
