<svg width="351" height="270" viewBox="0 0 351 270" fill="none" xmlns="http://www.w3.org/2000/svg">
<path d="M314.414 110.217C308.558 116.089 304.073 123.176 301.28 130.971C298.486 138.767 297.452 147.081 298.251 155.322L297.973 155.044C298.795 164.744 297.482 174.505 294.127 183.647C290.773 192.788 285.457 201.09 278.552 207.974C271.645 214.856 263.315 220.154 254.141 223.496C244.969 226.839 235.174 228.148 225.442 227.329L225.72 227.606C214.079 226.527 202.387 229.051 192.236 234.836C182.087 240.622 173.975 249.385 169.008 259.934C164.04 270.483 162.456 282.3 164.474 293.779C166.493 305.256 172.014 315.834 180.286 324.069C188.557 332.305 199.176 337.798 210.693 339.798C222.213 341.8 234.069 340.211 244.649 335.251C255.229 330.289 264.015 322.198 269.811 312.078C275.607 301.957 278.13 290.303 277.036 278.701L277.329 278.978C276.507 269.28 277.819 259.518 281.174 250.376C284.528 241.235 289.845 232.933 296.751 226.049C303.658 219.167 311.988 213.868 321.16 210.527C330.334 207.184 340.127 205.875 349.86 206.694L349.567 206.417C359.076 207.268 368.648 205.714 377.396 201.899C386.141 198.083 393.781 192.128 399.603 184.587C405.425 177.045 409.245 168.16 410.703 158.757C412.164 149.353 411.218 139.734 407.955 130.79C404.691 121.848 399.215 113.871 392.035 107.599C384.854 101.327 376.201 96.9627 366.877 94.9116C357.554 92.8604 347.861 93.1868 338.698 95.8617C329.535 98.5381 321.199 103.475 314.46 110.217H314.414Z" fill="white" fill-opacity="0.48"/>
<path d="M200.431 191.294L200.137 191.016C208.408 191.846 216.762 190.835 224.594 188.054C232.425 185.273 239.539 180.793 245.42 174.936C251.3 169.08 255.802 161.993 258.598 154.19C261.394 146.388 262.416 138.064 261.589 129.819L261.883 130.097C261.061 120.397 262.374 110.636 265.727 101.494C269.082 92.3528 274.399 84.051 281.304 77.1675C288.211 70.2856 296.541 64.9866 305.713 61.645C314.887 58.3012 324.68 56.9933 334.414 57.8121L334.12 57.5349C345.763 58.6252 357.458 56.1083 367.613 50.3295C377.77 44.5508 385.888 35.7906 390.864 25.244C395.839 14.6976 397.429 2.87813 395.417 -8.60224C393.406 -20.0826 387.889 -30.6647 379.619 -38.9055C371.351 -47.1462 360.733 -52.6444 349.213 -54.6497C337.694 -56.6551 325.835 -55.0704 315.252 -50.1115C304.669 -45.1528 295.88 -37.0612 290.081 -26.9406C284.282 -16.8201 281.757 -5.16325 282.851 6.43985L282.573 6.14726C283.396 15.8472 282.086 25.6094 278.733 34.7523C275.38 43.8952 270.063 52.1984 263.157 59.0825C256.25 65.9645 247.919 71.2634 238.745 74.6051C229.57 77.9467 219.775 79.2526 210.042 78.4318L210.32 78.7244C202.049 77.8944 193.694 78.9061 185.863 81.6872C178.032 84.4668 170.918 88.948 165.037 94.8044C159.156 100.661 154.655 107.748 151.858 115.55C149.063 123.353 148.041 131.677 148.868 139.921L148.59 139.644C149.409 149.343 148.094 159.103 144.739 168.244C141.383 177.383 136.068 185.685 129.162 192.567C122.256 199.449 113.927 204.747 104.755 208.091C95.5839 211.434 85.7907 212.745 76.0589 211.929L76.3371 212.206C64.6944 211.116 52.9978 213.632 42.8428 219.411C32.6878 225.191 24.5686 233.95 19.593 244.497C14.6172 255.044 13.0269 266.863 15.0392 278.343C17.0515 289.823 22.5684 300.406 30.8371 308.646C39.106 316.888 49.7242 322.385 61.2437 324.39C72.7632 326.395 84.623 324.811 95.2055 319.852C105.788 314.893 114.578 306.803 120.376 296.682C126.175 286.56 128.7 274.904 127.606 263.301L127.9 263.578C127.078 253.878 128.391 244.118 131.746 234.975C135.099 225.834 140.416 217.533 147.321 210.649C154.228 203.767 162.558 198.468 171.73 195.127C180.904 191.783 190.698 190.474 200.431 191.294Z" fill="white" fill-opacity="0.48"/>
<path d="M96.8814 160.389C102.738 154.519 107.222 147.432 110.013 139.635C112.804 131.839 113.834 123.523 113.029 115.285L113.322 115.562C112.5 105.86 113.813 96.0954 117.169 86.9512C120.525 77.8071 125.844 69.5038 132.754 62.6203C139.664 55.7371 147.998 50.4398 157.174 47.099C166.351 43.7579 176.149 42.4536 185.884 43.2772L185.59 43C197.229 44.0867 208.921 41.5691 219.071 35.7906C229.222 30.0123 237.335 21.2542 242.309 10.7111C247.282 0.167763 248.87 -11.6474 246.858 -23.1235C244.847 -34.5995 239.33 -45.1776 231.065 -53.4154C222.8 -61.6531 212.185 -67.1494 200.67 -69.1547C189.155 -71.1602 177.299 -69.5768 166.721 -64.621C156.141 -59.6652 147.353 -51.5779 141.556 -41.4621C135.757 -31.3462 133.23 -19.6942 134.321 -8.09507L134.043 -8.37226C134.865 1.32702 133.552 11.0882 130.197 20.2299C126.843 29.3715 121.527 37.6735 114.621 44.5564C107.715 51.4393 99.3845 56.7371 90.2116 60.0794C81.0388 63.4226 71.2445 64.7315 61.5122 63.9123L61.7903 64.1895C52.2808 63.3394 42.7098 64.8963 33.9643 68.7138C25.2189 72.5313 17.5818 78.4877 11.761 86.0303C5.94013 93.5714 2.12384 102.457 0.665493 111.86C-0.792696 121.264 0.154347 130.882 3.41885 139.823C6.68336 148.766 12.16 156.741 19.3409 163.012C26.5218 169.284 35.1748 173.646 44.4982 175.698C53.8213 177.747 63.5132 177.419 72.6757 174.744C81.838 172.068 90.1742 167.131 96.9122 160.389H96.8814Z" fill="white" fill-opacity="0.48"/>
</svg>
