<svg width="80" height="80" viewBox="0 0 80 80" fill="none" xmlns="http://www.w3.org/2000/svg">
<rect width="80" height="80" fill="white"/>
<path d="M40 35C37.8987 35.0007 35.8679 35.7575 34.2787 37.1322C32.6895 38.5068 31.648 40.4075 31.3446 42.4867C31.0413 44.5659 31.4962 46.6849 32.6264 48.4563C33.7566 50.2278 35.4865 51.5333 37.5 52.1344V57.5C37.5 58.163 37.7634 58.7989 38.2322 59.2678C38.7011 59.7366 39.337 60 40 60C40.663 60 41.2989 59.7366 41.7678 59.2678C42.2366 58.7989 42.5 58.163 42.5 57.5V52.1344C44.5135 51.5333 46.2434 50.2278 47.3736 48.4563C48.5038 46.6849 48.9587 44.5659 48.6554 42.4867C48.352 40.4075 47.3105 38.5068 45.7213 37.1322C44.1321 35.7575 42.1013 35.0007 40 35ZM40 47.5C39.2583 47.5 38.5333 47.2801 37.9166 46.868C37.2999 46.456 36.8193 45.8703 36.5355 45.1851C36.2516 44.4998 36.1774 43.7458 36.3221 43.0184C36.4667 42.291 36.8239 41.6228 37.3483 41.0984C37.8728 40.5739 38.541 40.2168 39.2684 40.0721C39.9958 39.9274 40.7498 40.0016 41.4351 40.2855C42.1203 40.5693 42.706 41.0499 43.118 41.6666C43.5301 42.2833 43.75 43.0083 43.75 43.75C43.75 44.7446 43.3549 45.6984 42.6516 46.4016C41.9484 47.1049 40.9946 47.5 40 47.5ZM65 25H55V17.5C55 13.5218 53.4197 9.70644 50.6066 6.8934C47.7936 4.08035 43.9782 2.5 40 2.5C36.0218 2.5 32.2064 4.08035 29.3934 6.8934C26.5804 9.70644 25 13.5218 25 17.5V25H15C13.6739 25 12.4021 25.5268 11.4645 26.4645C10.5268 27.4021 10 28.6739 10 30V65C10 66.3261 10.5268 67.5979 11.4645 68.5355C12.4021 69.4732 13.6739 70 15 70H65C66.3261 70 67.5979 69.4732 68.5355 68.5355C69.4732 67.5979 70 66.3261 70 65V30C70 28.6739 69.4732 27.4021 68.5355 26.4645C67.5979 25.5268 66.3261 25 65 25ZM30 17.5C30 14.8478 31.0536 12.3043 32.9289 10.4289C34.8043 8.55357 37.3478 7.5 40 7.5C42.6522 7.5 45.1957 8.55357 47.0711 10.4289C48.9464 12.3043 50 14.8478 50 17.5V25H30V17.5ZM65 65H15V30H65V65Z" fill="#DE322D"/>
</svg>
